<svg width="795" height="220" viewBox="0 0 795 220" fill="none" xmlns="http://www.w3.org/2000/svg">
<path d="M110.814 199.126C93.0624 217.768 66.3432 225.106 42.6123 216.28C16.6878 206.662 -2.0098 180.087 0.933608 151.925C3.18262 130.407 15.7904 117.417 30.9463 101.651C38.3248 93.817 45.9027 86.1817 54.3781 79.4387C75.018 62.6806 109.422 65.5562 127.066 87.2724C130.556 91.5676 134.193 94.8086 130.556 101.056C128.363 104.824 123.975 107.7 119.588 107.005C115.101 106.51 111.611 101.452 108.221 98.8742C102.737 94.3128 96.0567 91.0405 88.8776 90.1481C69.1351 87.5699 59.3635 100.857 46.8998 113.253C41.4158 118.905 35.9317 124.458 30.7468 130.407C11.7023 153.512 22.77 184.946 48.7943 195.853C64.2493 202.497 81.1003 200.316 93.6637 188.416C100.045 182.467 105.529 175.724 112.01 169.873C121.782 160.354 133.647 156.487 147.507 158.172C148.704 158.271 149.302 158.767 148.404 159.858C135.741 173.146 123.278 186.036 110.814 199.126Z" fill="#050505"/>
<path d="M64.5484 126.54C70.1322 123.863 74.5194 127.234 78.2087 131.3C81.3994 134.473 84.6898 137.844 88.0799 141.018C90.0741 143.001 92.0683 144.885 94.0625 146.868C95.0596 148.058 96.3558 147.661 97.2532 146.571C110.016 133.085 122.58 119.698 135.542 106.51C139.032 102.94 142.422 99.2709 145.712 95.5028C147.906 93.0238 150.199 90.1481 153.29 88.7599C161.865 84.5951 170.341 91.7347 164.258 100.461C163.261 102.147 162.065 103.535 160.768 105.022C142.222 124.557 123.975 144.091 105.33 163.527C101.94 167.196 97.0538 171.559 91.8689 168.782C89.3762 167.593 87.0828 165.312 85.0886 163.329C77.5107 155.495 70.0325 147.959 62.5542 139.927C58.6656 136.059 59.4632 129.317 64.349 126.54H64.5484Z" fill="#050505"/>
<path d="M195.667 109.187C187.439 117.369 179.913 126.738 170.041 132.886C161.167 138.439 151.396 141.712 141.026 141.612C137.935 141.583 141.425 138.286 142.821 136.853C145.912 133.68 149.003 130.308 151.994 126.937C162.663 115.335 173.705 105.056 184.699 92.4288C207.233 66.5479 194.869 33.4282 165.953 23.9088C152.592 19.4465 137.436 22.818 127.266 32.7341C119.09 40.6669 111.113 48.8972 103.036 56.8301C101.94 57.9209 100.544 58.3175 99.048 58.3175C92.9657 58.3175 86.8834 58.3175 80.8011 58.3175C78.9067 58.3175 76.713 58.3175 74.8186 58.3175C74.32 58.3175 74.1206 58.1192 74.0209 57.9209C74.0209 57.5242 74.7188 56.8301 75.1177 56.4335C82.3965 49.0956 89.6753 41.6585 96.9541 34.3206C104.233 27.0819 111.312 19.9423 118.99 12.9019C136.639 -3.45958 162.264 -3.1621 182.904 7.64641C220.893 28.371 229.07 75.9681 195.667 109.187Z" fill="#050505"/>
<path d="M247 101.029V88.8704H310.881V101.029H286.134V168.937H271.747V101.029H247Z" fill="#050505"/>
<path d="M331.68 170.149C327.874 170.149 324.447 169.471 321.398 168.116C318.374 166.734 315.976 164.701 314.204 162.017C312.458 159.332 311.585 156.022 311.585 152.087C311.585 148.699 312.21 145.897 313.461 143.681C314.712 141.466 316.42 139.694 318.583 138.365C320.746 137.035 323.183 136.032 325.894 135.354C328.63 134.651 331.458 134.142 334.377 133.83C337.896 133.465 340.75 133.139 342.939 132.852C345.128 132.539 346.718 132.07 347.708 131.445C348.725 130.793 349.233 129.79 349.233 128.434V128.2C349.233 125.255 348.36 122.974 346.614 121.358C344.868 119.742 342.352 118.934 339.068 118.934C335.602 118.934 332.852 119.69 330.819 121.202C328.813 122.714 327.457 124.499 326.754 126.558L313.54 124.681C314.582 121.032 316.302 117.983 318.7 115.533C321.098 113.057 324.03 111.207 327.496 109.982C330.963 108.731 334.794 108.105 338.99 108.105C341.883 108.105 344.763 108.444 347.63 109.122C350.497 109.799 353.117 110.92 355.488 112.484C357.86 114.021 359.763 116.12 361.196 118.778C362.656 121.436 363.386 124.76 363.386 128.747V168.937H349.78V160.688H349.311C348.451 162.356 347.239 163.92 345.676 165.379C344.138 166.813 342.196 167.972 339.85 168.859C337.531 169.719 334.807 170.149 331.68 170.149ZM335.354 159.749C338.195 159.749 340.658 159.189 342.743 158.068C344.828 156.922 346.431 155.41 347.552 153.533C348.699 151.657 349.272 149.611 349.272 147.395V140.319C348.829 140.684 348.073 141.023 347.005 141.336C345.962 141.649 344.789 141.922 343.486 142.157C342.183 142.391 340.893 142.6 339.616 142.782C338.339 142.965 337.231 143.121 336.293 143.251C334.182 143.538 332.292 144.007 330.624 144.659C328.956 145.31 327.64 146.223 326.675 147.395C325.711 148.542 325.229 150.028 325.229 151.852C325.229 154.459 326.18 156.426 328.083 157.756C329.985 159.085 332.409 159.749 335.354 159.749Z" fill="#050505"/>
<path d="M425.077 124.76L412.176 126.167C411.811 124.864 411.172 123.639 410.26 122.492C409.374 121.345 408.175 120.42 406.664 119.716C405.152 119.013 403.301 118.661 401.112 118.661C398.167 118.661 395.691 119.299 393.684 120.576C391.703 121.853 390.726 123.508 390.752 125.541C390.726 127.288 391.364 128.708 392.668 129.803C393.997 130.897 396.186 131.797 399.236 132.5L409.478 134.69C415.16 135.915 419.382 137.856 422.145 140.515C424.934 143.173 426.341 146.653 426.367 150.953C426.341 154.732 425.234 158.068 423.044 160.961C420.881 163.828 417.871 166.07 414.013 167.686C410.156 169.302 405.725 170.11 400.721 170.11C393.371 170.11 387.455 168.572 382.972 165.496C378.489 162.395 375.818 158.081 374.958 152.556L388.758 151.227C389.384 153.937 390.713 155.983 392.746 157.365C394.779 158.746 397.424 159.437 400.682 159.437C404.044 159.437 406.742 158.746 408.775 157.365C410.834 155.983 411.863 154.276 411.863 152.243C411.863 150.523 411.199 149.103 409.869 147.982C408.566 146.861 406.533 146.001 403.771 145.402L393.528 143.251C387.768 142.052 383.506 140.033 380.744 137.192C377.981 134.325 376.613 130.702 376.639 126.323C376.613 122.622 377.616 119.417 379.649 116.706C381.708 113.969 384.562 111.858 388.211 110.373C391.886 108.861 396.121 108.105 400.917 108.105C407.954 108.105 413.492 109.604 417.532 112.601C421.598 115.598 424.113 119.651 425.077 124.76Z" fill="#050505"/>
<path d="M450.939 150.093L450.899 133.009H453.167L474.747 108.887H491.284L464.739 138.443H461.807L450.939 150.093ZM438.037 168.937V88.8704H452.19V168.937H438.037ZM475.725 168.937L456.177 141.609L465.716 131.64L492.653 168.937H475.725Z" fill="#050505"/>
<path d="M569.875 115.885H555.253C554.836 113.487 554.068 111.363 552.947 109.512C551.826 107.636 550.432 106.046 548.764 104.743C547.096 103.44 545.193 102.462 543.056 101.811C540.945 101.133 538.664 100.794 536.214 100.794C531.862 100.794 528.004 101.889 524.642 104.078C521.28 106.242 518.648 109.421 516.745 113.617C514.842 117.788 513.891 122.883 513.891 128.904C513.891 135.028 514.842 140.189 516.745 144.385C518.674 148.555 521.306 151.709 524.642 153.846C528.004 155.957 531.849 157.013 536.175 157.013C538.573 157.013 540.814 156.7 542.899 156.075C545.011 155.423 546.9 154.472 548.568 153.221C550.262 151.97 551.683 150.432 552.83 148.607C554.002 146.783 554.81 144.698 555.253 142.352L569.875 142.43C569.328 146.236 568.142 149.806 566.317 153.142C564.519 156.478 562.16 159.424 559.241 161.978C556.322 164.506 552.908 166.487 548.998 167.92C545.089 169.328 540.749 170.031 535.98 170.031C528.943 170.031 522.661 168.402 517.136 165.145C511.611 161.887 507.258 157.182 504.078 151.031C500.899 144.88 499.309 137.504 499.309 128.904C499.309 120.277 500.912 112.901 504.117 106.776C507.323 100.625 511.689 95.9205 517.214 92.6626C522.74 89.4047 528.995 87.7757 535.98 87.7757C540.437 87.7757 544.581 88.4013 548.412 89.6523C552.243 90.9033 555.657 92.7408 558.655 95.1647C561.652 97.5625 564.115 100.508 566.044 104C567.998 107.467 569.276 111.428 569.875 115.885Z" fill="#050505"/>
<path d="M596.684 133.751V168.937H582.532V88.8704H596.372V119.091H597.075C598.483 115.703 600.659 113.031 603.604 111.076C606.575 109.095 610.354 108.105 614.942 108.105C619.112 108.105 622.748 108.978 625.849 110.724C628.951 112.471 631.348 115.025 633.043 118.387C634.763 121.749 635.623 125.854 635.623 130.702V168.937H621.47V132.891C621.47 128.851 620.428 125.711 618.343 123.469C616.284 121.202 613.391 120.068 609.664 120.068C607.162 120.068 604.92 120.615 602.939 121.71C600.985 122.779 599.447 124.329 598.326 126.362C597.232 128.395 596.684 130.858 596.684 133.751Z" fill="#050505"/>
<path d="M667.329 170.149C663.524 170.149 660.096 169.471 657.047 168.116C654.023 166.734 651.626 164.701 649.853 162.017C648.107 159.332 647.234 156.022 647.234 152.087C647.234 148.699 647.859 145.897 649.111 143.681C650.362 141.466 652.069 139.694 654.232 138.365C656.395 137.035 658.832 136.032 661.543 135.354C664.279 134.651 667.107 134.142 670.026 133.83C673.545 133.465 676.399 133.139 678.588 132.852C680.777 132.539 682.367 132.07 683.358 131.445C684.374 130.793 684.882 129.79 684.882 128.434V128.2C684.882 125.255 684.009 122.974 682.263 121.358C680.517 119.742 678.002 118.934 674.718 118.934C671.251 118.934 668.502 119.69 666.469 121.202C664.462 122.714 663.107 124.499 662.403 126.558L649.189 124.681C650.231 121.032 651.951 117.983 654.349 115.533C656.747 113.057 659.679 111.207 663.146 109.982C666.612 108.731 670.443 108.105 674.639 108.105C677.533 108.105 680.413 108.444 683.279 109.122C686.146 109.799 688.766 110.92 691.138 112.484C693.509 114.021 695.412 116.12 696.845 118.778C698.305 121.436 699.035 124.76 699.035 128.747V168.937H685.43V160.688H684.961C684.1 162.356 682.889 163.92 681.325 165.379C679.787 166.813 677.845 167.972 675.5 168.859C673.18 169.719 670.456 170.149 667.329 170.149ZM671.004 159.749C673.845 159.749 676.308 159.189 678.393 158.068C680.478 156.922 682.081 155.41 683.201 153.533C684.348 151.657 684.921 149.611 684.921 147.395V140.319C684.478 140.684 683.723 141.023 682.654 141.336C681.611 141.649 680.439 141.922 679.135 142.157C677.832 142.391 676.542 142.6 675.265 142.782C673.988 142.965 672.88 143.121 671.942 143.251C669.831 143.538 667.941 144.007 666.273 144.659C664.605 145.31 663.289 146.223 662.325 147.395C661.36 148.542 660.878 150.028 660.878 151.852C660.878 154.459 661.829 156.426 663.732 157.756C665.635 159.085 668.059 159.749 671.004 159.749Z" fill="#050505"/>
<path d="M713.265 168.937V108.887H727.418V168.937H713.265ZM720.381 100.364C718.139 100.364 716.21 99.6215 714.595 98.1359C712.979 96.6242 712.171 94.8128 712.171 92.7017C712.171 90.5645 712.979 88.7531 714.595 87.2675C716.21 85.7558 718.139 85 720.381 85C722.648 85 724.577 85.7558 726.167 87.2675C727.783 88.7531 728.59 90.5645 728.59 92.7017C728.59 94.8128 727.783 96.6242 726.167 98.1359C724.577 99.6215 722.648 100.364 720.381 100.364Z" fill="#050505"/>
<path d="M756.123 133.751V168.937H741.971V108.887H755.498V119.091H756.201C757.583 115.729 759.785 113.057 762.808 111.076C765.858 109.095 769.624 108.105 774.107 108.105C778.251 108.105 781.861 108.991 784.936 110.764C788.038 112.536 790.435 115.103 792.129 118.465C793.85 121.827 794.697 125.906 794.671 130.702V168.937H780.518V132.891C780.518 128.878 779.476 125.737 777.391 123.469C775.332 121.202 772.478 120.068 768.829 120.068C766.353 120.068 764.151 120.615 762.222 121.71C760.319 122.779 758.821 124.329 757.726 126.362C756.657 128.395 756.123 130.858 756.123 133.751Z" fill="#050505"/>
</svg>
