<svg width="549" height="336" viewBox="0 0 549 336" fill="none" xmlns="http://www.w3.org/2000/svg">
<path d="M276.649 199.126C258.898 217.768 232.179 225.106 208.448 216.28C182.523 206.662 163.826 180.087 166.769 151.925C169.018 130.407 181.626 117.417 196.782 101.651C204.16 93.817 211.738 86.1817 220.214 79.4387C240.854 62.6806 275.257 65.5562 292.902 87.2724C296.392 91.5676 300.029 94.8086 296.392 101.056C294.198 104.824 289.811 107.7 285.424 107.005C280.937 106.51 277.447 101.452 274.057 98.8742C268.573 94.3128 261.892 91.0405 254.713 90.1481C234.971 87.5699 225.199 100.857 212.735 113.253C207.251 118.905 201.767 124.458 196.582 130.407C177.538 153.512 188.606 184.946 214.63 195.853C230.085 202.497 246.936 200.316 259.499 188.416C265.881 182.467 271.365 175.724 277.846 169.873C287.617 160.354 299.483 156.487 313.343 158.172C314.539 158.271 315.137 158.767 314.24 159.858C301.577 173.146 289.113 186.036 276.649 199.126Z" fill="#F5F5F5"/>
<path d="M230.384 126.54C235.968 123.863 240.355 127.234 244.044 131.3C247.235 134.473 250.525 137.844 253.916 141.018C255.91 143.001 257.904 144.885 259.898 146.868C260.895 148.058 262.191 147.661 263.089 146.571C275.852 133.085 288.415 119.698 301.377 106.51C304.867 102.94 308.257 99.2709 311.548 95.5028C313.741 93.0238 316.035 90.1481 319.126 88.7599C327.701 84.5951 336.176 91.7347 330.094 100.461C329.097 102.147 327.9 103.535 326.604 105.022C308.058 124.557 289.811 144.091 271.165 163.527C267.775 167.196 262.889 171.559 257.704 168.782C255.212 167.593 252.918 165.312 250.924 163.329C243.346 155.495 235.868 147.959 228.39 139.927C224.501 136.059 225.299 129.317 230.185 126.54H230.384Z" fill="#F5F5F5"/>
<path d="M361.502 109.187C353.275 117.369 345.748 126.738 335.877 132.886C327.003 138.439 317.231 141.712 306.861 141.612C303.77 141.583 307.26 138.286 308.656 136.853C311.747 133.68 314.838 130.308 317.83 126.937C328.498 115.335 339.54 105.056 350.534 92.4288C373.069 66.5479 360.705 33.4282 331.789 23.9088C318.428 19.4465 303.272 22.818 293.101 32.7341C284.925 40.6669 276.948 48.8972 268.872 56.8301C267.775 57.9209 266.379 58.3175 264.884 58.3175C258.801 58.3175 252.719 58.3175 246.637 58.3175C244.742 58.3175 242.549 58.3175 240.654 58.3175C240.156 58.3175 239.956 58.1192 239.856 57.9209C239.856 57.5242 240.554 56.8301 240.953 56.4335C248.232 49.0956 255.511 41.6585 262.79 34.3206C270.069 27.0819 277.148 19.9423 284.826 12.9019C302.474 -3.45958 328.1 -3.1621 348.74 7.64641C386.729 28.371 394.905 75.9681 361.502 109.187Z" fill="#F5F5F5"/>
<path d="M0.628662 266.029V253.87H64.5097V266.029H39.7627V333.937H25.3757V266.029H0.628662Z" fill="#F5F5F5"/>
<path d="M85.3082 335.149C81.503 335.149 78.0756 334.471 75.0262 333.116C72.0029 331.734 69.6051 329.701 67.8328 327.017C66.0865 324.332 65.2134 321.022 65.2134 317.087C65.2134 313.699 65.8389 310.897 67.09 308.681C68.341 306.466 70.0482 304.694 72.2114 303.365C74.3747 302.035 76.8116 301.032 79.5222 300.354C82.2588 299.651 85.0867 299.142 88.0058 298.83C91.5243 298.465 94.3782 298.139 96.5675 297.852C98.7569 297.539 100.347 297.07 101.337 296.445C102.354 295.793 102.862 294.79 102.862 293.434V293.2C102.862 290.255 101.989 287.974 100.242 286.358C98.4962 284.742 95.9811 283.934 92.6971 283.934C89.2307 283.934 86.4811 284.69 84.4481 286.202C82.4412 287.714 81.086 289.499 80.3822 291.558L67.1682 289.681C68.2107 286.032 69.9309 282.983 72.3287 280.533C74.7265 278.057 77.6586 276.207 81.1251 274.982C84.5915 273.731 88.4228 273.105 92.6189 273.105C95.512 273.105 98.392 273.444 101.259 274.122C104.126 274.799 106.745 275.92 109.117 277.484C111.489 279.021 113.391 281.12 114.825 283.778C116.284 286.436 117.014 289.76 117.014 293.747V333.937H103.409V325.688H102.94C102.08 327.356 100.868 328.92 99.3042 330.379C97.7664 331.813 95.8247 332.972 93.479 333.859C91.1594 334.719 88.4358 335.149 85.3082 335.149ZM88.9831 324.749C91.824 324.749 94.287 324.189 96.3721 323.068C98.4571 321.922 100.06 320.41 101.181 318.533C102.328 316.657 102.901 314.611 102.901 312.395V305.319C102.458 305.684 101.702 306.023 100.633 306.336C99.5909 306.649 98.418 306.922 97.1149 307.157C95.8117 307.391 94.5216 307.6 93.2445 307.782C91.9674 307.965 90.8597 308.121 89.9214 308.251C87.8103 308.538 85.9207 309.007 84.2526 309.659C82.5846 310.31 81.2684 311.223 80.3041 312.395C79.3397 313.542 78.8576 315.028 78.8576 316.852C78.8576 319.459 79.8089 321.426 81.7115 322.756C83.6141 324.085 86.038 324.749 88.9831 324.749Z" fill="#F5F5F5"/>
<path d="M178.706 289.76L165.805 291.167C165.44 289.864 164.801 288.639 163.889 287.492C163.003 286.345 161.804 285.42 160.292 284.716C158.781 284.013 156.93 283.661 154.741 283.661C151.796 283.661 149.32 284.299 147.313 285.576C145.332 286.853 144.355 288.508 144.381 290.541C144.355 292.288 144.993 293.708 146.296 294.803C147.625 295.897 149.815 296.797 152.864 297.5L163.107 299.69C168.789 300.915 173.011 302.856 175.774 305.515C178.563 308.173 179.97 311.653 179.996 315.953C179.97 319.732 178.862 323.068 176.673 325.961C174.51 328.828 171.499 331.07 167.642 332.686C163.785 334.302 159.354 335.11 154.35 335.11C147 335.11 141.084 333.572 136.601 330.496C132.118 327.395 129.446 323.081 128.586 317.556L142.387 316.227C143.012 318.937 144.342 320.983 146.374 322.365C148.407 323.746 151.053 324.437 154.311 324.437C157.673 324.437 160.37 323.746 162.403 322.365C164.462 320.983 165.492 319.276 165.492 317.243C165.492 315.523 164.827 314.103 163.498 312.982C162.195 311.861 160.162 311.001 157.399 310.402L147.156 308.251C141.396 307.052 137.135 305.033 134.372 302.192C131.61 299.325 130.241 295.702 130.267 291.323C130.241 287.622 131.245 284.417 133.278 281.706C135.337 278.969 138.191 276.858 141.839 275.373C145.514 273.861 149.75 273.105 154.545 273.105C161.582 273.105 167.121 274.604 171.161 277.601C175.226 280.598 177.742 284.651 178.706 289.76Z" fill="#F5F5F5"/>
<path d="M204.567 315.093L204.528 298.009H206.796L228.376 273.887H244.913L218.368 303.443H215.436L204.567 315.093ZM191.666 333.937V253.87H205.818V333.937H191.666ZM229.353 333.937L209.806 306.609L219.345 296.64L246.281 333.937H229.353Z" fill="#F5F5F5"/>
<path d="M323.504 280.885H308.882C308.465 278.487 307.696 276.363 306.576 274.512C305.455 272.636 304.06 271.046 302.392 269.743C300.724 268.44 298.822 267.462 296.685 266.811C294.573 266.133 292.293 265.794 289.843 265.794C285.49 265.794 281.633 266.889 278.271 269.078C274.909 271.242 272.276 274.421 270.374 278.617C268.471 282.788 267.52 287.883 267.52 293.904C267.52 300.028 268.471 305.189 270.374 309.385C272.302 313.555 274.935 316.709 278.271 318.846C281.633 320.957 285.477 322.013 289.804 322.013C292.202 322.013 294.443 321.7 296.528 321.075C298.639 320.423 300.529 319.472 302.197 318.221C303.891 316.97 305.311 315.432 306.458 313.607C307.631 311.783 308.439 309.698 308.882 307.352L323.504 307.43C322.956 311.236 321.77 314.806 319.946 318.142C318.148 321.478 315.789 324.424 312.87 326.978C309.951 329.506 306.536 331.487 302.627 332.92C298.717 334.328 294.378 335.031 289.608 335.031C282.571 335.031 276.29 333.402 270.765 330.145C265.239 326.887 260.887 322.182 257.707 316.031C254.527 309.88 252.937 302.504 252.937 293.904C252.937 285.277 254.54 277.901 257.746 271.776C260.952 265.625 265.317 260.921 270.843 257.663C276.368 254.405 282.623 252.776 289.608 252.776C294.065 252.776 298.209 253.401 302.041 254.652C305.872 255.903 309.286 257.741 312.283 260.165C315.281 262.562 317.744 265.508 319.672 269C321.627 272.467 322.904 276.428 323.504 280.885Z" fill="#F5F5F5"/>
<path d="M350.313 298.751V333.937H336.161V253.87H350V284.091H350.704C352.111 280.703 354.288 278.031 357.233 276.076C360.204 274.095 363.983 273.105 368.57 273.105C372.74 273.105 376.376 273.978 379.478 275.724C382.579 277.471 384.977 280.025 386.671 283.387C388.391 286.749 389.251 290.854 389.251 295.702V333.937H375.099V297.891C375.099 293.851 374.057 290.711 371.972 288.469C369.913 286.202 367.019 285.068 363.292 285.068C360.79 285.068 358.549 285.615 356.568 286.71C354.613 287.779 353.076 289.329 351.955 291.362C350.86 293.395 350.313 295.858 350.313 298.751Z" fill="#F5F5F5"/>
<path d="M420.957 335.149C417.152 335.149 413.725 334.471 410.675 333.116C407.652 331.734 405.254 329.701 403.482 327.017C401.736 324.332 400.863 321.022 400.863 317.087C400.863 313.699 401.488 310.897 402.739 308.681C403.99 306.466 405.697 304.694 407.861 303.365C410.024 302.035 412.461 301.032 415.171 300.354C417.908 299.651 420.736 299.142 423.655 298.83C427.174 298.465 430.027 298.139 432.217 297.852C434.406 297.539 435.996 297.07 436.986 296.445C438.003 295.793 438.511 294.79 438.511 293.434V293.2C438.511 290.255 437.638 287.974 435.892 286.358C434.145 284.742 431.63 283.934 428.346 283.934C424.88 283.934 422.13 284.69 420.097 286.202C418.09 287.714 416.735 289.499 416.031 291.558L402.817 289.681C403.86 286.032 405.58 282.983 407.978 280.533C410.376 278.057 413.308 276.207 416.774 274.982C420.241 273.731 424.072 273.105 428.268 273.105C431.161 273.105 434.041 273.444 436.908 274.122C439.775 274.799 442.394 275.92 444.766 277.484C447.138 279.021 449.041 281.12 450.474 283.778C451.934 286.436 452.663 289.76 452.663 293.747V333.937H439.058V325.688H438.589C437.729 327.356 436.517 328.92 434.953 330.379C433.416 331.813 431.474 332.972 429.128 333.859C426.809 334.719 424.085 335.149 420.957 335.149ZM424.632 324.749C427.473 324.749 429.936 324.189 432.021 323.068C434.106 321.922 435.709 320.41 436.83 318.533C437.977 316.657 438.55 314.611 438.55 312.395V305.319C438.107 305.684 437.351 306.023 436.283 306.336C435.24 306.649 434.067 306.922 432.764 307.157C431.461 307.391 430.171 307.6 428.894 307.782C427.617 307.965 426.509 308.121 425.571 308.251C423.459 308.538 421.57 309.007 419.902 309.659C418.234 310.31 416.918 311.223 415.953 312.395C414.989 313.542 414.507 315.028 414.507 316.852C414.507 319.459 415.458 321.426 417.361 322.756C419.263 324.085 421.687 324.749 424.632 324.749Z" fill="#F5F5F5"/>
<path d="M466.894 333.937V273.887H481.046V333.937H466.894ZM474.009 265.364C471.768 265.364 469.839 264.621 468.223 263.136C466.607 261.624 465.799 259.813 465.799 257.702C465.799 255.565 466.607 253.753 468.223 252.268C469.839 250.756 471.768 250 474.009 250C476.277 250 478.205 250.756 479.795 252.268C481.411 253.753 482.219 255.565 482.219 257.702C482.219 259.813 481.411 261.624 479.795 263.136C478.205 264.621 476.277 265.364 474.009 265.364Z" fill="#F5F5F5"/>
<path d="M509.752 298.751V333.937H495.599V273.887H509.126V284.091H509.83C511.211 280.729 513.414 278.057 516.437 276.076C519.486 274.095 523.252 273.105 527.735 273.105C531.879 273.105 535.489 273.991 538.565 275.764C541.666 277.536 544.064 280.103 545.758 283.465C547.478 286.827 548.325 290.906 548.299 295.702V333.937H534.147V297.891C534.147 293.878 533.104 290.737 531.019 288.469C528.96 286.202 526.106 285.068 522.458 285.068C519.982 285.068 517.779 285.615 515.851 286.71C513.948 287.779 512.449 289.329 511.355 291.362C510.286 293.395 509.752 295.858 509.752 298.751Z" fill="#F5F5F5"/>
</svg>
