<svg width="216" height="220" viewBox="0 0 216 220" fill="none" xmlns="http://www.w3.org/2000/svg">
<path d="M110.185 199.126C92.4338 217.768 65.7146 225.106 41.9836 216.28C16.0591 206.662 -2.63846 180.087 0.304946 151.925C2.55396 130.407 15.1617 117.417 30.3176 101.651C37.6961 93.817 45.2741 86.1817 53.7494 79.4387C74.3893 62.6806 108.793 65.5562 126.438 87.2724C129.928 91.5676 133.564 94.8086 129.928 101.056C127.734 104.824 123.347 107.7 118.96 107.005C114.473 106.51 110.983 101.452 107.593 98.8742C102.109 94.3128 95.4281 91.0405 88.249 90.1481C68.5064 87.5699 58.7349 100.857 46.2712 113.253C40.7871 118.905 35.3031 124.458 30.1182 130.407C11.0736 153.512 22.1414 184.946 48.1656 195.853C63.6207 202.497 80.4716 200.316 93.035 188.416C99.4165 182.467 104.901 175.724 111.382 169.873C121.153 160.354 133.019 156.487 146.878 158.172C148.075 158.271 148.673 158.767 147.776 159.858C135.113 173.146 122.649 186.036 110.185 199.126Z" fill="#F5F5F5"/>
<path d="M63.9198 126.54C69.5035 123.863 73.8907 127.234 77.58 131.3C80.7707 134.473 84.0611 137.844 87.4513 141.018C89.4455 143.001 91.4397 144.885 93.4339 146.868C94.431 148.058 95.7272 147.661 96.6246 146.571C109.387 133.085 121.951 119.698 134.913 106.51C138.403 102.94 141.793 99.2709 145.084 95.5028C147.277 93.0238 149.57 90.1481 152.661 88.7599C161.237 84.5951 169.712 91.7347 163.63 100.461C162.632 102.147 161.436 103.535 160.14 105.022C141.594 124.557 123.347 144.091 104.701 163.527C101.311 167.196 96.4252 171.559 91.2402 168.782C88.7475 167.593 86.4542 165.312 84.46 163.329C76.882 155.495 69.4038 147.959 61.9256 139.927C58.0369 136.059 58.8346 129.317 63.7203 126.54H63.9198Z" fill="#F5F5F5"/>
<path d="M195.038 109.187C186.811 117.369 179.284 126.738 169.413 132.886C160.539 138.439 150.767 141.712 140.397 141.612C137.306 141.583 140.796 138.286 142.192 136.853C145.283 133.68 148.374 130.308 151.365 126.937C162.034 115.335 173.076 105.056 184.07 92.4288C206.604 66.5479 194.24 33.4282 165.325 23.9088C151.964 19.4465 136.808 22.818 126.637 32.7341C118.461 40.6669 110.484 48.8972 102.408 56.8301C101.311 57.9209 99.915 58.3175 98.4194 58.3175C92.3371 58.3175 86.2548 58.3175 80.1725 58.3175C78.278 58.3175 76.0844 58.3175 74.1899 58.3175C73.6913 58.3175 73.4919 58.1192 73.3922 57.9209C73.3922 57.5242 74.0902 56.8301 74.489 56.4335C81.7678 49.0956 89.0467 41.6585 96.3255 34.3206C103.604 27.0819 110.684 19.9423 118.361 12.9019C136.01 -3.45958 161.635 -3.1621 182.275 7.64641C220.265 28.371 228.441 75.9681 195.038 109.187Z" fill="#F5F5F5"/>
</svg>
