<svg width="548" height="336" viewBox="0 0 548 336" fill="none" xmlns="http://www.w3.org/2000/svg">
<path d="M276.021 199.126C258.269 217.768 231.55 225.106 207.819 216.28C181.895 206.662 163.197 180.087 166.141 151.925C168.39 130.407 180.997 117.417 196.153 101.651C203.532 93.817 211.11 86.1817 219.585 79.4387C240.225 62.6806 274.629 65.5562 292.273 87.2724C295.763 91.5676 299.4 94.8086 295.763 101.056C293.57 104.824 289.182 107.7 284.795 107.005C280.308 106.51 276.818 101.452 273.428 98.8742C267.944 94.3128 261.264 91.0405 254.085 90.1481C234.342 87.5699 224.57 100.857 212.107 113.253C206.623 118.905 201.139 124.458 195.954 130.407C176.909 153.512 187.977 184.946 214.001 195.853C229.456 202.497 246.307 200.316 258.871 188.416C265.252 182.467 270.736 175.724 277.217 169.873C286.989 160.354 298.854 156.487 312.714 158.172C313.91 158.271 314.509 158.767 313.611 159.858C300.948 173.146 288.484 186.036 276.021 199.126Z" fill="#050505"/>
<path d="M229.755 126.54C235.339 123.863 239.726 127.234 243.416 131.3C246.606 134.473 249.897 137.844 253.287 141.018C255.281 143.001 257.275 144.885 259.269 146.868C260.267 148.058 261.563 147.661 262.46 146.571C275.223 133.085 287.786 119.698 300.749 106.51C304.239 102.94 307.629 99.2709 310.919 95.5028C313.113 93.0238 315.406 90.1481 318.497 88.7599C327.072 84.5951 335.547 91.7347 329.465 100.461C328.468 102.147 327.272 103.535 325.975 105.022C307.429 124.557 289.182 144.091 270.537 163.527C267.147 167.196 262.261 171.559 257.076 168.782C254.583 167.593 252.29 165.312 250.296 163.329C242.718 155.495 235.239 147.959 227.761 139.927C223.872 136.059 224.67 129.317 229.556 126.54H229.755Z" fill="#050505"/>
<path d="M360.874 109.187C352.646 117.369 345.12 126.738 335.248 132.886C326.374 138.439 316.603 141.712 306.233 141.612C303.142 141.583 306.632 138.286 308.028 136.853C311.119 133.68 314.21 130.308 317.201 126.937C327.87 115.335 338.912 105.056 349.906 92.4288C372.44 66.5479 360.076 33.4282 331.16 23.9088C317.799 19.4465 302.643 22.818 292.473 32.7341C284.297 40.6669 276.32 48.8972 268.243 56.8301C267.147 57.9209 265.751 58.3175 264.255 58.3175C258.173 58.3175 252.09 58.3175 246.008 58.3175C244.114 58.3175 241.92 58.3175 240.025 58.3175C239.527 58.3175 239.328 58.1192 239.228 57.9209C239.228 57.5242 239.926 56.8301 240.325 56.4335C247.603 49.0956 254.882 41.6585 262.161 34.3206C269.44 27.0819 276.519 19.9423 284.197 12.9019C301.846 -3.45958 327.471 -3.1621 348.111 7.64641C386.1 28.371 394.277 75.9681 360.874 109.187Z" fill="#050505"/>
<path d="M0 266.029V253.87H63.8811V266.029H39.134V333.937H24.7471V266.029H0Z" fill="#050505"/>
<path d="M84.6795 335.149C80.8743 335.149 77.447 334.471 74.3976 333.116C71.3742 331.734 68.9764 329.701 67.2041 327.017C65.4579 324.332 64.5848 321.022 64.5848 317.087C64.5848 313.699 65.2103 310.897 66.4613 308.681C67.7124 306.466 69.4195 304.694 71.5828 303.365C73.746 302.035 76.1829 301.032 78.8935 300.354C81.6301 299.651 84.458 299.142 87.3771 298.83C90.8956 298.465 93.7496 298.139 95.9389 297.852C98.1282 297.539 99.718 297.07 100.708 296.445C101.725 295.793 102.233 294.79 102.233 293.434V293.2C102.233 290.255 101.36 287.974 99.6138 286.358C97.8676 284.742 95.3525 283.934 92.0685 283.934C88.6021 283.934 85.8524 284.69 83.8195 286.202C81.8126 287.714 80.4573 289.499 79.7536 291.558L66.5395 289.681C67.582 286.032 69.3022 282.983 71.7 280.533C74.0979 278.057 77.03 276.207 80.4964 274.982C83.9628 273.731 87.7941 273.105 91.9903 273.105C94.8833 273.105 97.7633 273.444 100.63 274.122C103.497 274.799 106.117 275.92 108.488 277.484C110.86 279.021 112.763 281.12 114.196 283.778C115.656 286.436 116.386 289.76 116.386 293.747V333.937H102.78V325.688H102.311C101.451 327.356 100.239 328.92 98.6755 330.379C97.1378 331.813 95.1961 332.972 92.8504 333.859C90.5307 334.719 87.8071 335.149 84.6795 335.149ZM88.3545 324.749C91.1954 324.749 93.6583 324.189 95.7434 323.068C97.8285 321.922 99.4314 320.41 100.552 318.533C101.699 316.657 102.272 314.611 102.272 312.395V305.319C101.829 305.684 101.073 306.023 100.005 306.336C98.9622 306.649 97.7894 306.922 96.4862 307.157C95.183 307.391 93.8929 307.6 92.6158 307.782C91.3387 307.965 90.231 308.121 89.2927 308.251C87.1816 308.538 85.292 309.007 83.624 309.659C81.9559 310.31 80.6397 311.223 79.6754 312.395C78.7111 313.542 78.2289 315.028 78.2289 316.852C78.2289 319.459 79.1802 321.426 81.0828 322.756C82.9854 324.085 85.4093 324.749 88.3545 324.749Z" fill="#050505"/>
<path d="M178.077 289.76L165.176 291.167C164.811 289.864 164.172 288.639 163.26 287.492C162.374 286.345 161.175 285.42 159.664 284.716C158.152 284.013 156.301 283.661 154.112 283.661C151.167 283.661 148.691 284.299 146.684 285.576C144.703 286.853 143.726 288.508 143.752 290.541C143.726 292.288 144.364 293.708 145.668 294.803C146.997 295.897 149.186 296.797 152.236 297.5L162.478 299.69C168.16 300.915 172.382 302.856 175.145 305.515C177.934 308.173 179.341 311.653 179.367 315.953C179.341 319.732 178.234 323.068 176.044 325.961C173.881 328.828 170.871 331.07 167.013 332.686C163.156 334.302 158.725 335.11 153.721 335.11C146.371 335.11 140.455 333.572 135.972 330.496C131.489 327.395 128.818 323.081 127.958 317.556L141.758 316.227C142.384 318.937 143.713 320.983 145.746 322.365C147.779 323.746 150.424 324.437 153.682 324.437C157.044 324.437 159.742 323.746 161.775 322.365C163.834 320.983 164.863 319.276 164.863 317.243C164.863 315.523 164.199 314.103 162.869 312.982C161.566 311.861 159.533 311.001 156.771 310.402L146.528 308.251C140.768 307.052 136.506 305.033 133.744 302.192C130.981 299.325 129.613 295.702 129.639 291.323C129.613 287.622 130.616 284.417 132.649 281.706C134.708 278.969 137.562 276.858 141.211 275.373C144.886 273.861 149.121 273.105 153.917 273.105C160.954 273.105 166.492 274.604 170.532 277.601C174.598 280.598 177.113 284.651 178.077 289.76Z" fill="#050505"/>
<path d="M203.939 315.093L203.899 298.009H206.167L227.747 273.887H244.284L217.739 303.443H214.807L203.939 315.093ZM191.037 333.937V253.87H205.19V333.937H191.037ZM228.725 333.937L209.177 306.609L218.716 296.64L245.653 333.937H228.725Z" fill="#050505"/>
<path d="M322.875 280.885H308.253C307.836 278.487 307.068 276.363 305.947 274.512C304.826 272.636 303.432 271.046 301.764 269.743C300.096 268.44 298.193 267.462 296.056 266.811C293.945 266.133 291.664 265.794 289.214 265.794C284.862 265.794 281.004 266.889 277.642 269.078C274.28 271.242 271.648 274.421 269.745 278.617C267.842 282.788 266.891 287.883 266.891 293.904C266.891 300.028 267.842 305.189 269.745 309.385C271.674 313.555 274.306 316.709 277.642 318.846C281.004 320.957 284.849 322.013 289.175 322.013C291.573 322.013 293.814 321.7 295.899 321.075C298.011 320.423 299.9 319.472 301.568 318.221C303.262 316.97 304.683 315.432 305.83 313.607C307.002 311.783 307.81 309.698 308.253 307.352L322.875 307.43C322.328 311.236 321.142 314.806 319.317 318.142C317.519 321.478 315.16 324.424 312.241 326.978C309.322 329.506 305.908 331.487 301.998 332.92C298.089 334.328 293.749 335.031 288.98 335.031C281.943 335.031 275.661 333.402 270.136 330.145C264.611 326.887 260.258 322.182 257.078 316.031C253.899 309.88 252.309 302.504 252.309 293.904C252.309 285.277 253.912 277.901 257.117 271.776C260.323 265.625 264.689 260.921 270.214 257.663C275.74 254.405 281.995 252.776 288.98 252.776C293.437 252.776 297.581 253.401 301.412 254.652C305.243 255.903 308.657 257.741 311.655 260.165C314.652 262.562 317.115 265.508 319.044 269C320.998 272.467 322.276 276.428 322.875 280.885Z" fill="#050505"/>
<path d="M349.684 298.751V333.937H335.532V253.87H349.372V284.091H350.075C351.483 280.703 353.659 278.031 356.604 276.076C359.575 274.095 363.354 273.105 367.942 273.105C372.112 273.105 375.748 273.978 378.849 275.724C381.951 277.471 384.348 280.025 386.043 283.387C387.763 286.749 388.623 290.854 388.623 295.702V333.937H374.47V297.891C374.47 293.851 373.428 290.711 371.343 288.469C369.284 286.202 366.391 285.068 362.664 285.068C360.162 285.068 357.92 285.615 355.939 286.71C353.985 287.779 352.447 289.329 351.326 291.362C350.232 293.395 349.684 295.858 349.684 298.751Z" fill="#050505"/>
<path d="M420.329 335.149C416.524 335.149 413.096 334.471 410.047 333.116C407.023 331.734 404.626 329.701 402.853 327.017C401.107 324.332 400.234 321.022 400.234 317.087C400.234 313.699 400.859 310.897 402.111 308.681C403.362 306.466 405.069 304.694 407.232 303.365C409.395 302.035 411.832 301.032 414.543 300.354C417.279 299.651 420.107 299.142 423.026 298.83C426.545 298.465 429.399 298.139 431.588 297.852C433.777 297.539 435.367 297.07 436.358 296.445C437.374 295.793 437.882 294.79 437.882 293.434V293.2C437.882 290.255 437.009 287.974 435.263 286.358C433.517 284.742 431.002 283.934 427.718 283.934C424.251 283.934 421.502 284.69 419.469 286.202C417.462 287.714 416.107 289.499 415.403 291.558L402.189 289.681C403.231 286.032 404.951 282.983 407.349 280.533C409.747 278.057 412.679 276.207 416.146 274.982C419.612 273.731 423.443 273.105 427.639 273.105C430.533 273.105 433.413 273.444 436.279 274.122C439.146 274.799 441.766 275.92 444.138 277.484C446.509 279.021 448.412 281.12 449.845 283.778C451.305 286.436 452.035 289.76 452.035 293.747V333.937H438.43V325.688H437.961C437.1 327.356 435.889 328.92 434.325 330.379C432.787 331.813 430.845 332.972 428.5 333.859C426.18 334.719 423.456 335.149 420.329 335.149ZM424.004 324.749C426.845 324.749 429.308 324.189 431.393 323.068C433.478 321.922 435.081 320.41 436.201 318.533C437.348 316.657 437.921 314.611 437.921 312.395V305.319C437.478 305.684 436.723 306.023 435.654 306.336C434.611 306.649 433.439 306.922 432.135 307.157C430.832 307.391 429.542 307.6 428.265 307.782C426.988 307.965 425.88 308.121 424.942 308.251C422.831 308.538 420.941 309.007 419.273 309.659C417.605 310.31 416.289 311.223 415.325 312.395C414.36 313.542 413.878 315.028 413.878 316.852C413.878 319.459 414.829 321.426 416.732 322.756C418.635 324.085 421.059 324.749 424.004 324.749Z" fill="#050505"/>
<path d="M466.265 333.937V273.887H480.418V333.937H466.265ZM473.381 265.364C471.139 265.364 469.21 264.621 467.595 263.136C465.979 261.624 465.171 259.813 465.171 257.702C465.171 255.565 465.979 253.753 467.595 252.268C469.21 250.756 471.139 250 473.381 250C475.648 250 477.577 250.756 479.167 252.268C480.783 253.753 481.59 255.565 481.59 257.702C481.59 259.813 480.783 261.624 479.167 263.136C477.577 264.621 475.648 265.364 473.381 265.364Z" fill="#050505"/>
<path d="M509.123 298.751V333.937H494.971V273.887H508.498V284.091H509.201C510.583 280.729 512.785 278.057 515.808 276.076C518.858 274.095 522.624 273.105 527.107 273.105C531.251 273.105 534.861 273.991 537.936 275.764C541.038 277.536 543.435 280.103 545.129 283.465C546.85 286.827 547.697 290.906 547.671 295.702V333.937H533.518V297.891C533.518 293.878 532.476 290.737 530.391 288.469C528.332 286.202 525.478 285.068 521.829 285.068C519.353 285.068 517.151 285.615 515.222 286.71C513.319 287.779 511.821 289.329 510.726 291.362C509.657 293.395 509.123 295.858 509.123 298.751Z" fill="#050505"/>
</svg>
