<svg width="30" height="31" viewBox="0 0 30 31" fill="none" xmlns="http://www.w3.org/2000/svg">
<g id="Icon / Google">
<path id="Shape" fill-rule="evenodd" clip-rule="evenodd" d="M28.8022 15.8541C28.8022 14.8187 28.7093 13.8232 28.5367 12.8675H14.7852V18.5154H22.6432C22.3047 20.3406 21.276 21.887 19.7296 22.9223V26.5858H24.4484C27.2093 24.0439 28.8022 20.3008 28.8022 15.8541Z" fill="#4285F4"/>
<path id="Shape_2" fill-rule="evenodd" clip-rule="evenodd" d="M14.7844 30.1233C18.7266 30.1233 22.0318 28.8158 24.4476 26.5859L19.7288 22.9223C18.4214 23.7984 16.7489 24.3161 14.7844 24.3161C10.9815 24.3161 7.76258 21.7476 6.61441 18.2964H1.73633V22.0794C4.13886 26.8513 9.07668 30.1233 14.7844 30.1233Z" fill="#34A853"/>
<path id="Shape_3" fill-rule="evenodd" clip-rule="evenodd" d="M6.61518 18.2964C6.32316 17.4204 6.15724 16.4846 6.15724 15.5222C6.15724 14.5599 6.32316 13.6241 6.61518 12.748V8.96503H1.7371C0.748214 10.9362 0.184082 13.1661 0.184082 15.5222C0.184082 17.8783 0.748214 20.1083 1.7371 22.0794L6.61518 18.2964Z" fill="#FBBC05"/>
<path id="Shape_4" fill-rule="evenodd" clip-rule="evenodd" d="M14.7844 6.72838C16.9281 6.72838 18.8527 7.46507 20.3659 8.9119L24.5538 4.72405C22.0252 2.36797 18.72 0.921143 14.7844 0.921143C9.07668 0.921143 4.13886 4.19311 1.73633 8.965L6.61441 12.748C7.76258 9.29684 10.9815 6.72838 14.7844 6.72838Z" fill="#EA4335"/>
</g>
</svg>
